<svg xmlns="http://www.w3.org/2000/svg" viewBox="0 0 64 64" id="volunteer-card"><circle cx="32" cy="32" r="32" fill="#68bbd8"></circle><polygon fill="#445c6c" points="18.92 7.28 27.54 23.9 36.36 23.9 27.64 7.28 18.92 7.28"></polygon><rect width="32.25" height="35.38" x="15.87" y="21.34" fill="#fffbff"></rect><rect width="24.92" height="25.46" x="19.54" y="26.3" fill="#5bcec3"></rect><ellipse cx="36.33" cy="35.35" fill="#ecb285" rx="1.62" ry=".7" transform="rotate(-75.97 36.322 35.351)"></ellipse><ellipse cx="27.67" cy="35.35" fill="#ecb285" rx=".7" ry="1.62" transform="rotate(-14.03 27.657 35.371)"></ellipse><polygon fill="#f2d7bc" points="32.1 50.43 32.14 50.44 32.1 50.45 32.1 50.43"></polygon><polygon fill="#f2d7bc" points="31.99 50.42 32.02 50.43 32.02 50.45 31.99 50.42"></polygon><rect width="4.81" height="4.29" x="29.6" y="38.55" fill="#ecb285"></rect><path fill="#f4d387" d="M41.66,48.48a1.27,1.27,0,0,1-.78,1.08c-2.42.78-8.84.89-8.84.89l0,0h-.15l0,0s-6.42-.11-8.84-.89a1.27,1.27,0,0,1-.78-1.08l.53-4.65s.94-2.26,5.75-3.16v0s0,2.22,3.13,2.92a.75.75,0,0,0,.22,0H32l.08,0c3.3-.66,3.28-3,3.28-3l-.15,0c4.81.89,5.89,3.18,5.89,3.18Z"></path><path fill="#2d434f" d="M35.38,40.66c-.32-.06-.62-.11-1-.16,0,1-.88,1.5-1.56,1.78a4.88,4.88,0,0,1-.84.26,4.88,4.88,0,0,1-.84-.26c-.68-.28-1.55-.82-1.56-1.78l-1,.16v0s0,2.22,3.13,2.92l.22,0h.15c3.3-.66,3.28-3,3.28-3Z"></path><ellipse cx="32" cy="34.16" fill="#f4c6a6" rx="4.26" ry="6.16"></ellipse><path fill="#2d434f" d="M28,36.16a10.37,10.37,0,0,0,.41-3.67s-.24-1.48,2-.89a6.89,6.89,0,0,0,4.32-.41s1-.59.88,2.47A14,14,0,0,1,36,36.26s1.79-5.28-.3-7.4-7.3-1.42-8.18,1.24C27.53,30.1,26.49,31.21,28,36.16Z"></path><rect width="9.95" height="1.4" x="27.02" y="23.2" fill="#5bcec3"></rect><polygon fill="#2d434f" points="45.08 7.28 36.46 23.9 27.64 23.9 36.36 7.28 45.08 7.28"></polygon></svg>